<svg width="72" height="73" fill="none" xmlns="http://www.w3.org/2000/svg"><g clip-path="url(#clip0_12_189)"><path d="M67.175 18.5l-8.354-4.824L54 5.323h-9.646L36 .5l-8.354 4.823H18l-4.824 8.355L4.823 18.5v9.645L0 36.5l4.823 8.355V54.5l8.355 4.824L18 67.677h9.646l8.352 4.822 8.355-4.823h9.645l4.824-8.355 8.354-4.823v-9.646L72 36.498l-4.823-8.354V18.5h-.002zM32.75 51.234a3.365 3.365 0 01-2.436.985 3.363 3.363 0 01-2.436-.985L17.35 40.705a3.379 3.379 0 010-4.777l2.787-2.787a3.379 3.379 0 014.777 0l5.4 5.4 16.77-16.771a3.379 3.379 0 014.777 0l2.787 2.787a3.379 3.379 0 010 4.778L32.75 51.234z" fill="#486382"/></g><defs><clipPath id="clip0_12_189"><path fill="#fff" transform="translate(0 .5)" d="M0 0h72v72H0z"/></clipPath></defs></svg>