<svg width="73" height="72" fill="none" xmlns="http://www.w3.org/2000/svg"><path fill-rule="evenodd" clip-rule="evenodd" d="M10.454 14.141C7.284 17.404 5.5 21.825 5.5 26.435c0 4.613 1.784 9.034 4.954 12.294l21.657 22.273a6.721 6.721 0 004.822 2.047 6.725 6.725 0 004.821-2.047c3.922-4.034 21.639-22.29 21.639-22.29 3.17-3.261 4.954-7.682 4.954-12.295 0-4.612-1.784-9.031-4.954-12.294C60.2 10.841 55.865 9 51.35 9s-8.846 1.84-12.04 5.123l-2.396 2.464-2.378-2.446c-3.193-3.283-7.524-5.123-12.04-5.123-4.515 0-8.849 1.84-12.041 5.123zm3.227 3.139c2.338-2.405 5.508-3.762 8.816-3.762 3.307 0 6.475 1.357 8.813 3.762l3.991 4.104a2.256 2.256 0 001.613.682 2.26 2.26 0 001.614-.682l4.01-4.124c2.337-2.403 5.505-3.76 8.813-3.76 3.307 0 6.475 1.357 8.815 3.76.007.009.014.015.023.024 2.337 2.406 3.658 5.7 3.658 9.133 0 3.434-1.32 6.73-3.681 9.158 0 0-17.716 18.256-21.638 22.29a2.233 2.233 0 01-1.596.684c-.598 0-1.172-.25-1.595-.684L13.681 35.593C11.321 33.165 10 29.869 10 26.435c0-3.433 1.32-6.727 3.681-9.155z" fill="#486382"/><path fill-rule="evenodd" clip-rule="evenodd" d="M34.245 33.757h-4.493a2.25 2.25 0 000 4.5h4.494v4.493a2.25 2.25 0 004.5 0v-4.493h4.493a2.25 2.25 0 000-4.5h-4.493v-4.493a2.25 2.25 0 00-4.5 0v4.493z" fill="#486382"/></svg>