<svg width="36" height="36" fill="none" xmlns="http://www.w3.org/2000/svg"><path d="M18 21.164a3.176 3.176 0 003.171-3.171 3.175 3.175 0 00-3.164-3.171c-1.055 0-1.99.52-2.566 1.322a3.173 3.173 0 00-.598 1.849A3.16 3.16 0 0018 21.164zm6.919-7.038v-3.052h-.394l-2.658.007.014 3.052 3.038-.007z" fill="#fff"/><path d="M22.922 18A4.927 4.927 0 0118 22.922 4.927 4.927 0 0113.078 18c0-.654.134-1.28.366-1.85h-2.686v7.37c0 .949.773 1.722 1.723 1.722H23.52c.949 0 1.722-.773 1.722-1.723v-7.368h-2.686c.24.57.366 1.195.366 1.849z" fill="#fff"/><path d="M18 0C8.058 0 0 8.058 0 18s8.058 18 18 18 18-8.058 18-18S27.942 0 18 0zm9 16.15v7.37c0 1.92-1.56 3.48-3.48 3.48H12.48C10.56 27 9 25.44 9 23.52V12.473c0-1.92 1.56-3.48 3.48-3.48h11.04c1.92 0 3.48 1.56 3.48 3.48v3.678z" fill="#fff"/></svg>