<svg width="73" height="72" fill="none" xmlns="http://www.w3.org/2000/svg"><path d="M56.75 29.25a20.25 20.25 0 00-40.5 0c0 8.307 6.646 19.134 20.25 32.103C50.103 48.384 56.75 37.557 56.75 29.25zM36.5 67.5C19.998 52.502 11.75 39.748 11.75 29.25a24.75 24.75 0 0149.5 0c0 10.498-8.248 23.252-24.75 38.25z" fill="#486382"/><path d="M36.5 31.5a4.5 4.5 0 100-9 4.5 4.5 0 000 9zm0 4.5a9 9 0 110-18 9 9 0 010 18zm24.3 13.5l7.2 18H47.75V63h-22.5v4.5H5l7.2-18h48.6zm-4.846 0H17.047l-5.4 13.5h49.706l-5.4-13.5z" fill="#486382"/></svg>