<svg width="36" height="36" fill="none" xmlns="http://www.w3.org/2000/svg"><g clip-path="url(#clip0_5_161)"><path fill-rule="evenodd" clip-rule="evenodd" d="M28.478 25.418c-.434 1.228-2.158 2.244-3.534 2.54-.941.2-2.169.359-6.305-1.355-4.646-1.925-11.097-8.781-11.097-13.344 0-2.322 1.34-5.027 3.681-5.027 1.127 0 1.375.022 1.746.911.434 1.048 1.492 3.63 1.618 3.895.52 1.085-.529 1.721-1.29 2.666-.243.285-.519.592-.211 1.122.306.518 1.364 2.243 2.92 3.628 2.008 1.79 3.637 2.361 4.22 2.604.434.18.953.138 1.27-.2.401-.434.9-1.154 1.407-1.864.358-.507.814-.57 1.29-.39.323.111 4.418 2.013 4.59 2.317.129.221.129 1.269-.305 2.497zM18.004 0h-.01C8.072 0 0 8.074 0 18c0 3.936 1.269 7.588 3.427 10.55l-2.243 6.688 6.918-2.21A17.86 17.86 0 0018.004 36C27.927 36 36 27.926 36 18S27.927 0 18.004 0z" fill="#fff"/></g><defs><clipPath id="clip0_5_161"><path fill="#fff" d="M0 0h36v36H0z"/></clipPath></defs></svg>