<svg width="72" height="73" viewBox="0 0 72 73" fill="none" xmlns="http://www.w3.org/2000/svg">
<g clip-path="url(#clip0_12_189)">
<path d="M67.1753 18.4998L58.8211 13.6764L53.9989 5.32347H44.3534L35.9993 0.5L27.6451 5.32347H17.9996L13.1762 13.6776L4.82347 18.4998V28.1453L0 36.4995L4.82347 44.8536V54.4991L13.1776 59.3226L18.0011 67.6767H27.6466L35.9995 72.499L44.3536 67.6755H53.9991L58.8226 59.3213L67.1767 54.4979V44.8524L72.0002 36.4982L67.1767 28.1441V18.4998H67.1753ZM32.7502 51.2337C32.0789 51.905 31.1946 52.2312 30.3142 52.2189C29.4336 52.2314 28.5495 51.905 27.8783 51.2337L17.3497 40.7051C16.0308 39.3863 16.0308 37.2467 17.3497 35.9278L20.1369 33.1406C21.4558 31.8217 23.5954 31.8217 24.9143 33.1406L30.3142 38.5405L47.0835 21.77C48.4023 20.4512 50.5419 20.4512 51.8608 21.77L54.648 24.5573C55.9669 25.8761 55.9669 28.0157 54.648 29.3346L32.7502 51.2337Z" fill="#486382"/>
</g>
<defs>
<clipPath id="clip0_12_189">
<rect width="72" height="72" fill="white" transform="translate(0 0.5)"/>
</clipPath>
</defs>
</svg>
