<svg width="34" height="34" viewBox="0 0 34 34" fill="none" xmlns="http://www.w3.org/2000/svg">
<path d="M17 0.399963C7.83333 0.399963 0.333328 7.8833 0.333328 17.1C0.333328 25.4333 6.43333 32.35 14.4 33.6V21.9333H10.1667V17.1H14.4V13.4166C14.4 9.2333 16.8833 6.9333 20.7 6.9333C22.5167 6.9333 24.4167 7.24996 24.4167 7.24996V11.3666H22.3167C20.25 11.3666 19.6 12.65 19.6 13.9667V17.1H24.2333L23.4833 21.9333H19.6V33.6C23.5273 32.9797 27.1037 30.9758 29.6832 27.95C32.2627 24.9243 33.6757 21.076 33.6667 17.1C33.6667 7.8833 26.1667 0.399963 17 0.399963Z" fill="#274A4A"/>
</svg>
