<svg width="73" height="72" viewBox="0 0 73 72" fill="none" xmlns="http://www.w3.org/2000/svg">
<path fill-rule="evenodd" clip-rule="evenodd" d="M10.4545 14.1412C7.28425 17.4037 5.5 21.825 5.5 26.4352C5.5 31.0477 7.28425 35.469 10.4545 38.7293L32.1107 61.002C33.3887 62.316 35.1235 63.0495 36.9325 63.0495C38.7393 63.0495 40.4763 62.316 41.7543 61.002C45.676 56.9677 63.3925 38.7113 63.3925 38.7113C66.5627 35.451 68.347 31.0298 68.347 26.4173C68.347 21.8048 66.5627 17.3857 63.3925 14.1232C60.1997 10.8405 55.8663 9 51.3505 9C46.8348 9 42.5035 10.8405 39.3108 14.1232L36.9145 16.587L34.5363 14.1412C31.3435 10.8585 27.0123 9.018 22.4965 9.018C17.9808 9.018 13.6473 10.8585 10.4545 14.1412ZM13.681 17.28C16.0188 14.8747 19.189 13.518 22.4965 13.518C25.804 13.518 28.972 14.8747 31.3098 17.28L35.3013 21.384C35.7243 21.8182 36.307 22.0658 36.9145 22.0658C37.522 22.0658 38.1048 21.8182 38.5278 21.384L42.5373 17.2598C44.875 14.8568 48.043 13.5 51.3505 13.5C54.658 13.5 57.826 14.8568 60.166 17.2598C60.1727 17.2688 60.1795 17.2755 60.1885 17.2845C62.5262 19.6898 63.847 22.9838 63.847 26.4173C63.847 29.8508 62.5262 33.147 60.166 35.5747C60.166 35.5747 42.4495 53.8312 38.5278 57.8655C38.1048 58.2997 37.531 58.5495 36.9325 58.5495C36.334 58.5495 35.7602 58.2997 35.3372 57.8655L13.681 35.5928C11.3208 33.165 10 29.8687 10 26.4352C10 23.0017 11.3208 19.7077 13.681 17.28Z" fill="#486382"/>
<path fill-rule="evenodd" clip-rule="evenodd" d="M34.2455 33.7567H29.7523C28.5103 33.7567 27.5023 34.7647 27.5023 36.0067C27.5023 37.2487 28.5103 38.2567 29.7523 38.2567H34.2455V42.75C34.2455 43.992 35.2535 45 36.4955 45C37.7375 45 38.7455 43.992 38.7455 42.75V38.2567H43.2388C44.4808 38.2567 45.4888 37.2487 45.4888 36.0067C45.4888 34.7647 44.4808 33.7567 43.2388 33.7567H38.7455V29.2635C38.7455 28.0215 37.7375 27.0135 36.4955 27.0135C35.2535 27.0135 34.2455 28.0215 34.2455 29.2635V33.7567Z" fill="#486382"/>
</svg>
