<svg width="73" height="72" viewBox="0 0 73 72" fill="none" xmlns="http://www.w3.org/2000/svg">
<path d="M56.75 29.25C56.75 23.8794 54.6165 18.7287 50.8189 14.9311C47.0213 11.1335 41.8706 9 36.5 9C31.1294 9 25.9787 11.1335 22.1811 14.9311C18.3835 18.7287 16.25 23.8794 16.25 29.25C16.25 37.557 22.8965 48.384 36.5 61.353C50.1035 48.384 56.75 37.557 56.75 29.25ZM36.5 67.5C19.9985 52.5015 11.75 39.7485 11.75 29.25C11.75 22.6859 14.3576 16.3906 18.9991 11.7491C23.6406 7.10758 29.9359 4.5 36.5 4.5C43.0641 4.5 49.3594 7.10758 54.0009 11.7491C58.6424 16.3906 61.25 22.6859 61.25 29.25C61.25 39.7485 53.0015 52.5015 36.5 67.5Z" fill="#486382"/>
<path d="M36.5 31.5C37.6935 31.5 38.8381 31.0259 39.682 30.182C40.5259 29.3381 41 28.1935 41 27C41 25.8065 40.5259 24.6619 39.682 23.818C38.8381 22.9741 37.6935 22.5 36.5 22.5C35.3065 22.5 34.1619 22.9741 33.318 23.818C32.4741 24.6619 32 25.8065 32 27C32 28.1935 32.4741 29.3381 33.318 30.182C34.1619 31.0259 35.3065 31.5 36.5 31.5ZM36.5 36C34.1131 36 31.8239 35.0518 30.136 33.364C28.4482 31.6761 27.5 29.3869 27.5 27C27.5 24.6131 28.4482 22.3239 30.136 20.636C31.8239 18.9482 34.1131 18 36.5 18C38.8869 18 41.1761 18.9482 42.864 20.636C44.5518 22.3239 45.5 24.6131 45.5 27C45.5 29.3869 44.5518 31.6761 42.864 33.364C41.1761 35.0518 38.8869 36 36.5 36ZM60.8 49.5L68 67.5H47.75V63H25.25V67.5H5L12.2 49.5H60.8ZM55.9535 49.5H17.0465L11.6465 63H61.3535L55.9535 49.5Z" fill="#486382"/>
</svg>
